<svg xmlns="http://www.w3.org/2000/svg" viewBox="0 0 600 900" width="600" height="900">
  <defs>
    <radialGradient id="bg2" cx="50%" cy="50%" r="70%" >
      <stop offset="0%" stop-color="#2a1505"/>
      <stop offset="100%" stop-color="#050200"/>
    </radialGradient>
  </defs>
  <rect width="600" height="900" fill="url(#bg2)"/>
  <path d="M 280,900 L 295,300 L 305,300 L 320,900 Z" fill="rgba(255, 150, 50, 0.05)"/>
  <g transform="translate(300, 450) scale(1.5)" fill="none" stroke="#b05c23" stroke-width="3" stroke-linecap="round">
    <rect x="-40" y="-20" width="80" height="40" rx="20" opacity="0.3"/>
    <path d="M -40,0 A 20,20 0 0,1 0,-20 L 20,-20 A 20,20 0 0,1 40,0"/>
    <path d="M -40,10 A 20,20 0 0,0 0,30" transform="rotate(15) translate(5, 5)"/>
    <path d="M 20,20 A 20,20 0 0,0 40,0" />
  </g>
</svg>